<svg width="850" height="120" viewBox="0 0 50 47" fill="none" xmlns="http://www.w3.org/2000/svg">
  <g clip-path="url(#a)" fill="#9A59C5">
    <path
      d="M3.5 26a3.5 3.5 0 1 0 0-7 3.5 3.5 0 0 0 0 7Zm43.3-.6a3.2 3.2 0 1 0 0-6.4 3.2 3.2 0 0 0 0 6.4ZM24.9 47c7.732 0 14-6.044 14-13.5S32.632 20 24.9 20s-14 6.044-14 13.5S17.168 47 24.9 47Zm0-33c4.032 0 7.3-3.134 7.3-7s-3.268-7-7.3-7-7.3 3.134-7.3 7 3.268 7 7.3 7Z" />
  </g>
  <defs>
    <clipPath id="a">
      <path fill="#fff" d="M0 0h50v47H0z" />
    </clipPath>
  </defs>
</svg>